<svg width="830" height="820" viewBox="0 0 830 820" fill="none" xmlns="http://www.w3.org/2000/svg">
<circle cx="412.5" cy="406.5" r="376.5" stroke="black" stroke-width="2"/>
<circle cx="412.5" cy="406.5" r="328.5" stroke="black" stroke-width="2"/>
<path d="M627.096 68.2197L622.803 73.3366L621.079 71.8903L632.047 58.8197L636.867 62.8647C638.298 64.0649 639.11 65.3691 639.306 66.7772C639.507 68.1903 639.103 69.4983 638.094 70.7012C637.029 71.97 635.81 72.6145 634.436 72.6349C633.074 72.6543 631.654 72.0438 630.175 70.8034L627.096 68.2197ZM628.279 66.8103L631.376 69.409C632.298 70.1824 633.185 70.5595 634.037 70.5404C634.894 70.5153 635.667 70.0928 636.355 69.2729C637.008 68.4949 637.285 67.6666 637.186 66.788C637.087 65.9094 636.617 65.1021 635.776 64.366L632.58 61.6844L628.279 66.8103ZM636.171 84.8603C634.855 83.7556 634.145 82.4258 634.042 80.871C633.945 79.3102 634.503 77.8056 635.719 76.3573L635.975 76.0521C636.783 75.0885 637.686 74.3829 638.684 73.9352C639.693 73.4865 640.705 73.3258 641.72 73.4533C642.746 73.5798 643.645 73.967 644.417 74.6148C645.679 75.6744 646.312 76.9139 646.314 78.3333C646.316 79.7528 645.667 81.2375 644.366 82.7875L643.786 83.4788L637.206 77.9573C636.427 78.935 636.055 79.9435 636.09 80.9829C636.137 82.0214 636.573 82.8871 637.399 83.5801C637.985 84.0723 638.582 84.3694 639.19 84.4715C639.798 84.5736 640.42 84.5552 641.057 84.4163L641.408 86.0575C639.545 86.6253 637.799 86.2263 636.171 84.8603ZM643.272 75.9793C642.601 75.4169 641.833 75.1902 640.966 75.2993C640.105 75.4024 639.251 75.8486 638.405 76.638L643.271 80.7207L643.376 80.595C644.036 79.711 644.356 78.8679 644.336 78.0655C644.321 77.2573 643.966 76.5618 643.272 75.9793ZM653.635 85.1957C653.419 84.9429 653.165 84.6934 652.871 84.4474C651.782 83.5334 650.654 83.377 649.486 83.9783L643.701 90.8727L642.041 89.4791L650.191 79.7659L651.807 81.1218L650.892 82.2665C652.165 81.8557 653.301 82.0696 654.3 82.9083C654.624 83.1794 654.834 83.4272 654.931 83.6516L653.635 85.1957ZM649.231 95.5128L656.304 87.0833L654.769 85.7952L655.846 84.5115L657.382 85.7996L658.218 84.8031C659.091 83.7618 660.045 83.1903 661.079 83.0888C662.112 82.9873 663.138 83.3634 664.155 84.2171C664.538 84.5385 664.876 84.9082 665.167 85.3263L663.948 86.5976C663.712 86.3077 663.435 86.0297 663.118 85.7635C662.579 85.3116 662.03 85.1211 661.471 85.1923C660.916 85.2574 660.393 85.5832 659.901 86.1697L659.042 87.1931L661.116 88.9332L660.039 90.2169L657.965 88.4768L650.892 96.9063L649.231 95.5128ZM658.471 103.571C657.154 102.467 656.444 101.137 656.341 99.5821C656.244 98.0213 656.803 96.5168 658.018 95.0685L658.274 94.7632C659.082 93.7997 659.986 93.0941 660.983 92.6463C661.992 92.1976 663.004 92.037 664.019 92.1645C665.045 92.291 665.944 92.6781 666.716 93.326C667.979 94.3855 668.611 95.6251 668.613 97.0445C668.615 98.4639 667.966 99.9486 666.666 101.499L666.085 102.19L659.505 96.6685C658.726 97.6461 658.354 98.6547 658.389 99.6941C658.436 100.733 658.872 101.598 659.698 102.291C660.284 102.783 660.881 103.081 661.489 103.183C662.097 103.285 662.719 103.266 663.356 103.127L663.708 104.769C661.844 105.336 660.098 104.937 658.471 103.571ZM665.571 94.6905C664.901 94.128 664.132 93.9014 663.265 94.0104C662.404 94.1136 661.55 94.5598 660.704 95.3492L665.57 99.4319L665.675 99.3062C666.335 98.4222 666.655 97.579 666.635 96.7767C666.62 95.9684 666.265 95.273 665.571 94.6905ZM666.144 109.704L664.483 108.311L672.634 98.5976L674.294 99.9911L666.144 109.704ZM674.661 95.9082C674.887 95.6389 675.158 95.4792 675.476 95.4293C675.799 95.3844 676.122 95.4975 676.445 95.7687C676.769 96.0399 676.936 96.3385 676.948 96.6646C676.96 96.9908 676.853 97.2885 676.627 97.5578C676.401 97.8271 676.129 97.9813 675.811 98.0202C675.492 98.0591 675.172 97.943 674.848 97.6718C674.525 97.4006 674.355 97.105 674.338 96.7848C674.327 96.4697 674.435 96.1775 674.661 95.9082ZM673.693 114.035C674.286 114.532 674.954 114.787 675.698 114.799C676.442 114.812 677.064 114.569 677.564 114.07L679.135 115.389C678.638 115.92 678.002 116.289 677.227 116.495C676.452 116.702 675.643 116.706 674.799 116.508C673.962 116.315 673.214 115.943 672.556 115.39C671.233 114.28 670.549 112.957 670.503 111.419C670.468 109.881 671.094 108.345 672.379 106.813L672.613 106.535C673.406 105.589 674.285 104.894 675.25 104.449C676.215 104.004 677.191 103.85 678.179 103.985C679.173 104.125 680.113 104.567 680.998 105.31C682.088 106.224 682.718 107.309 682.888 108.564C683.065 109.824 682.741 110.995 681.915 112.076L680.344 110.758C680.823 110.089 681.016 109.374 680.921 108.611C680.838 107.848 680.482 107.202 679.853 106.675C679.009 105.967 678.098 105.722 677.119 105.941C676.151 106.159 675.185 106.842 674.221 107.991L673.957 108.305C673.018 109.425 672.525 110.48 672.479 111.471C672.433 112.462 672.837 113.317 673.693 114.035ZM672.908 115.517L672.408 115.894C673.188 116.824 673.212 117.726 672.479 118.599C671.992 119.18 671.368 119.437 670.608 119.37C669.843 119.31 669.033 118.92 668.177 118.202L668.92 117.189C669.393 117.586 669.823 117.814 670.211 117.875C670.605 117.94 670.92 117.832 671.156 117.551C671.377 117.287 671.444 117.012 671.358 116.726C671.272 116.44 670.959 116.024 670.417 115.478L671.714 114.516L672.908 115.517ZM684.43 125.048C684.495 124.777 684.704 124.37 685.056 123.829C683.611 123.983 682.353 123.611 681.281 122.712C680.324 121.909 679.763 120.979 679.598 119.923C679.445 118.866 679.717 117.922 680.415 117.09C681.264 116.078 682.305 115.616 683.538 115.702C684.782 115.787 686.101 116.415 687.496 117.585L689.111 118.941L689.752 118.178C690.239 117.597 690.452 116.991 690.391 116.359C690.335 115.72 689.969 115.117 689.293 114.55C688.7 114.053 688.078 113.785 687.426 113.748C686.774 113.711 686.27 113.905 685.913 114.33L684.243 112.929C684.65 112.444 685.212 112.12 685.93 111.958C686.659 111.794 687.427 111.827 688.235 112.055C689.048 112.289 689.808 112.702 690.514 113.295C691.633 114.234 692.274 115.251 692.436 116.346C692.604 117.435 692.287 118.48 691.488 119.482L687.737 123.952C686.988 124.844 686.507 125.649 686.292 126.366L686.172 126.51L684.43 125.048ZM682.736 121.47C683.257 121.907 683.864 122.187 684.557 122.309C685.249 122.431 685.881 122.365 686.452 122.11L688.125 120.117L686.823 119.025C684.788 117.317 683.271 117.059 682.272 118.25C681.835 118.771 681.667 119.323 681.768 119.908C681.869 120.492 682.192 121.013 682.736 121.47ZM696.909 112.511C696.366 113.157 695.741 113.525 695.034 113.615C694.332 113.71 693.706 113.526 693.156 113.064C692.91 112.858 692.723 112.65 692.594 112.439C692.464 112.229 692.331 111.908 692.193 111.476C692.062 111.05 691.945 110.763 691.843 110.617C691.753 110.469 691.624 110.325 691.456 110.185C691.211 109.979 690.921 109.899 690.587 109.945C690.258 109.985 689.97 110.151 689.724 110.445L688.664 109.448C689.201 108.807 689.825 108.428 690.535 108.311C691.252 108.198 691.889 108.375 692.445 108.842C692.655 109.018 692.818 109.206 692.935 109.407C693.053 109.607 693.182 109.915 693.324 110.329C693.466 110.744 693.589 111.041 693.693 111.22C693.803 111.405 693.951 111.575 694.137 111.73C694.394 111.946 694.692 112.023 695.03 111.96C695.375 111.902 695.66 111.739 695.886 111.469L696.909 112.511ZM692.145 123.092C692.943 122.141 693.847 121.441 694.856 120.992C695.87 120.548 696.883 120.399 697.894 120.543C698.911 120.693 699.847 121.127 700.703 121.845C702.026 122.954 702.71 124.309 702.755 125.907C702.807 127.511 702.195 129.073 700.919 130.593L700.821 130.71C700.028 131.655 699.132 132.352 698.135 132.8C697.148 133.246 696.14 133.396 695.113 133.247C694.091 133.104 693.143 132.665 692.269 131.932C690.953 130.827 690.269 129.473 690.217 127.869C690.171 126.271 690.781 124.717 692.047 123.209L692.145 123.092ZM693.649 124.691C692.745 125.768 692.268 126.841 692.217 127.911C692.172 128.985 692.569 129.873 693.407 130.576C694.251 131.285 695.197 131.518 696.246 131.276C697.3 131.029 698.327 130.31 699.326 129.119C700.22 128.053 700.689 126.978 700.733 125.893C700.787 124.807 700.396 123.912 699.558 123.209C698.738 122.521 697.803 122.292 696.753 122.523C695.703 122.753 694.668 123.476 693.649 124.691Z" fill="black"/>
<path d="M787.745 271.701L781.166 272.861L780.776 270.645L797.579 267.682L798.672 273.879C798.996 275.718 798.78 277.24 798.025 278.444C797.271 279.656 796.12 280.398 794.574 280.671C792.943 280.958 791.595 280.668 790.529 279.801C789.473 278.94 788.778 277.56 788.443 275.659L787.745 271.701ZM789.556 271.381L790.259 275.363C790.467 276.548 790.905 277.407 791.57 277.94C792.243 278.472 793.106 278.645 794.16 278.459C795.16 278.283 795.905 277.826 796.394 277.089C796.883 276.353 797.042 275.432 796.871 274.328L796.146 270.219L789.556 271.381ZM794.981 289.393C794.978 289.06 794.943 288.705 794.877 288.328C794.63 286.928 793.866 286.083 792.586 285.793L783.722 287.356L783.346 285.221L795.833 283.019L796.199 285.096L794.763 285.385C796.002 285.889 796.735 286.783 796.961 288.068C797.034 288.483 797.036 288.808 796.966 289.043L794.981 289.393ZM785.4 298.222C785.102 296.529 785.413 295.054 786.334 293.797C787.262 292.539 788.657 291.745 790.519 291.417L790.911 291.348C792.15 291.129 793.296 291.169 794.348 291.468C795.409 291.772 796.287 292.3 796.983 293.05C797.687 293.806 798.127 294.681 798.302 295.673C798.588 297.296 798.276 298.653 797.365 299.741C796.455 300.83 795.003 301.55 793.01 301.901L792.122 302.058L790.63 293.599C789.404 293.847 788.471 294.38 787.83 295.199C787.198 296.025 786.976 296.968 787.163 298.03C787.296 298.784 787.563 299.395 787.963 299.864C788.363 300.333 788.851 300.719 789.428 301.022L788.643 302.505C786.85 301.742 785.769 300.314 785.4 298.222ZM796.548 295.982C796.396 295.121 795.953 294.453 795.219 293.98C794.493 293.505 793.552 293.298 792.396 293.359L793.499 299.614L793.661 299.585C794.735 299.332 795.522 298.892 796.022 298.265C796.53 297.636 796.705 296.875 796.548 295.982ZM791.522 312.219C792.099 312.117 792.506 311.819 792.744 311.325C792.991 310.837 793.135 310.031 793.174 308.905C793.215 307.787 793.341 306.881 793.551 306.185C793.763 305.497 794.065 304.96 794.457 304.574C794.851 304.195 795.355 303.951 795.97 303.843C796.994 303.662 797.935 303.94 798.795 304.677C799.656 305.422 800.205 306.467 800.443 307.814C800.692 309.23 800.529 310.44 799.953 311.446C799.378 312.46 798.521 313.067 797.383 313.268L797.004 311.121C797.589 311.018 798.049 310.679 798.384 310.105C798.72 309.538 798.822 308.877 798.689 308.123C798.552 307.346 798.275 306.768 797.859 306.389C797.444 306.01 796.962 305.869 796.416 305.966C795.901 306.056 795.548 306.329 795.358 306.783C795.169 307.237 795.048 308.015 794.997 309.119C794.947 310.231 794.815 311.146 794.601 311.866C794.387 312.587 794.073 313.146 793.659 313.544C793.254 313.948 792.717 314.21 792.048 314.328C790.932 314.524 789.957 314.236 789.123 313.463C788.296 312.689 787.757 311.59 787.506 310.166C787.33 309.166 787.351 308.25 787.569 307.418C787.787 306.587 788.173 305.896 788.727 305.346C789.29 304.803 789.94 304.466 790.679 304.335L791.055 306.471C790.347 306.635 789.827 307.02 789.498 307.626C789.177 308.238 789.094 308.982 789.249 309.859C789.391 310.667 789.667 311.285 790.076 311.712C790.493 312.147 790.975 312.315 791.522 312.219ZM805.098 317.881L802.074 318.414L802.485 320.746L800.835 321.037L800.424 318.705L792.68 320.071C792.18 320.159 791.821 320.329 791.604 320.582C791.394 320.833 791.334 321.209 791.422 321.709C791.465 321.955 791.571 322.285 791.739 322.7L790.008 323.005C789.755 322.471 789.582 321.938 789.488 321.407C789.32 320.453 789.482 319.683 789.973 319.096C790.465 318.51 791.242 318.123 792.303 317.936L800.047 316.57L799.646 314.297L801.297 314.006L801.698 316.279L804.721 315.746L805.098 317.881ZM791.799 333.161C792.023 332.994 792.444 332.817 793.062 332.629C791.856 331.818 791.131 330.724 790.888 329.347C790.671 328.116 790.839 327.043 791.392 326.129C791.954 325.22 792.769 324.672 793.839 324.483C795.139 324.254 796.234 324.569 797.123 325.428C798.021 326.293 798.628 327.621 798.944 329.414L799.311 331.491L800.292 331.318C801.038 331.187 801.591 330.859 801.951 330.336C802.318 329.811 802.426 329.114 802.272 328.244C802.138 327.482 801.833 326.878 801.357 326.43C800.882 325.982 800.371 325.807 799.825 325.903L799.446 323.757C800.069 323.647 800.708 323.76 801.362 324.097C802.026 324.44 802.593 324.959 803.065 325.653C803.538 326.355 803.854 327.16 804.014 328.068C804.268 329.507 804.105 330.698 803.526 331.641C802.954 332.582 802.04 333.18 800.783 333.433L795.036 334.446C793.89 334.649 793.004 334.956 792.378 335.367L792.194 335.4L791.799 333.161ZM792.801 329.331C792.919 330 793.205 330.605 793.657 331.144C794.109 331.683 794.635 332.038 795.237 332.21L797.799 331.758L797.504 330.084C797.042 327.469 796.046 326.296 794.515 326.566C793.846 326.684 793.362 326.999 793.064 327.512C792.765 328.024 792.678 328.631 792.801 329.331ZM808.728 338.47L805.704 339.003L806.115 341.334L804.465 341.625L804.054 339.294L796.31 340.659C795.81 340.748 795.451 340.918 795.234 341.17C795.025 341.422 794.964 341.797 795.052 342.297C795.095 342.544 795.201 342.874 795.37 343.288L793.639 343.594C793.386 343.059 793.212 342.527 793.119 341.996C792.951 341.042 793.112 340.271 793.604 339.685C794.095 339.098 794.872 338.712 795.934 338.524L803.678 337.159L803.277 334.885L804.927 334.594L805.328 336.868L808.352 336.335L808.728 338.47ZM794.479 348.36L794.103 346.225L806.59 344.023L806.966 346.158L794.479 348.36ZM809.871 343.266C810.217 343.205 810.528 343.257 810.803 343.423C811.08 343.596 811.255 343.891 811.328 344.306C811.401 344.722 811.338 345.058 811.137 345.316C810.936 345.573 810.663 345.732 810.317 345.793C809.971 345.855 809.663 345.798 809.394 345.623C809.126 345.448 808.955 345.153 808.881 344.738C808.808 344.322 808.868 343.986 809.061 343.73C809.255 343.482 809.525 343.327 809.871 343.266ZM798.707 355.397L808.842 356.799L809.227 358.98L795.95 356.704L795.663 355.077L807.353 348.351L807.737 350.532L798.707 355.397ZM797.511 365.556L797.135 363.421L809.622 361.219L809.998 363.354L797.511 365.556ZM812.903 360.462C813.25 360.401 813.56 360.453 813.835 360.619C814.112 360.792 814.287 361.086 814.36 361.502C814.433 361.917 814.37 362.254 814.169 362.511C813.969 362.769 813.695 362.928 813.349 362.989C813.003 363.05 812.695 362.993 812.426 362.819C812.158 362.644 811.987 362.349 811.913 361.933C811.84 361.518 811.9 361.182 812.093 360.926C812.287 360.678 812.557 360.523 812.903 360.462ZM804.371 367.345C806.287 367.007 807.906 367.19 809.228 367.893C810.557 368.594 811.352 369.68 811.611 371.149C811.868 372.611 811.572 373.857 810.723 374.888L817.232 373.74L817.608 375.875L799.882 379.001L799.536 377.039L800.856 376.699C799.659 376.029 798.926 374.933 798.658 373.409C798.403 371.963 798.787 370.678 799.81 369.553C800.835 368.436 802.302 367.71 804.21 367.373L804.371 367.345ZM804.505 369.523C803.09 369.772 802.033 370.26 801.336 370.986C800.639 371.711 800.382 372.59 800.563 373.621C800.802 374.975 801.584 375.856 802.91 376.265L808.646 375.254C809.71 374.408 810.126 373.323 809.892 372C809.708 370.953 809.16 370.209 808.249 369.767C807.338 369.324 806.09 369.243 804.505 369.523ZM801.827 390.034C802.052 389.867 802.473 389.69 803.09 389.502C801.884 388.691 801.159 387.597 800.917 386.22C800.7 384.989 800.867 383.916 801.42 383.001C801.982 382.093 802.797 381.545 803.867 381.356C805.167 381.127 806.262 381.442 807.151 382.3C808.049 383.165 808.656 384.494 808.973 386.287L809.339 388.364L810.32 388.191C811.066 388.059 811.619 387.732 811.979 387.208C812.347 386.683 812.454 385.986 812.3 385.117C812.166 384.355 811.861 383.75 811.386 383.303C810.91 382.855 810.399 382.679 809.853 382.776L809.474 380.629C810.098 380.519 810.736 380.633 811.391 380.97C812.054 381.313 812.622 381.831 813.093 382.526C813.566 383.228 813.882 384.033 814.042 384.941C814.296 386.379 814.133 387.57 813.554 388.513C812.982 389.455 812.068 390.052 810.812 390.306L805.064 391.319C803.918 391.521 803.032 391.828 802.407 392.24L802.222 392.272L801.827 390.034ZM802.83 386.204C802.948 386.873 803.233 387.477 803.685 388.016C804.137 388.555 804.664 388.911 805.265 389.082L807.827 388.631L807.532 386.957C807.071 384.341 806.075 383.168 804.543 383.438C803.874 383.556 803.39 383.872 803.092 384.384C802.794 384.897 802.706 385.504 802.83 386.204ZM808.991 393.542C810.906 393.204 812.525 393.387 813.847 394.09C815.176 394.792 815.971 395.877 816.23 397.347C816.488 398.809 816.192 400.055 815.342 401.085L821.851 399.937L822.228 402.072L804.501 405.198L804.155 403.236L805.476 402.896C804.279 402.227 803.546 401.13 803.277 399.607C803.022 398.16 803.406 396.875 804.43 395.751C805.454 394.634 806.921 393.907 808.829 393.571L808.991 393.542ZM809.125 395.72C807.709 395.97 806.653 396.457 805.956 397.183C805.259 397.909 805.001 398.787 805.183 399.818C805.421 401.172 806.204 402.054 807.529 402.463L813.265 401.451C814.329 400.605 814.745 399.52 814.512 398.197C814.327 397.151 813.779 396.406 812.868 395.964C811.958 395.522 810.71 395.44 809.125 395.72ZM805.77 413.744C805.472 412.052 805.783 410.577 806.703 409.32C807.632 408.061 809.027 407.268 810.889 406.94L811.281 406.87C812.52 406.652 813.665 406.692 814.717 406.99C815.779 407.295 816.657 407.822 817.353 408.572C818.057 409.329 818.497 410.203 818.672 411.196C818.958 412.819 818.646 414.175 817.735 415.264C816.824 416.353 815.373 417.073 813.38 417.424L812.491 417.581L811 409.121C809.774 409.369 808.841 409.903 808.2 410.722C807.568 411.547 807.346 412.491 807.533 413.552C807.666 414.306 807.932 414.918 808.332 415.387C808.732 415.856 809.221 416.242 809.798 416.544L809.012 418.028C807.22 417.265 806.139 415.837 805.77 413.744ZM816.918 411.505C816.766 410.643 816.323 409.976 815.589 409.502C814.862 409.027 813.922 408.82 812.766 408.881L813.869 415.136L814.031 415.108C815.105 414.855 815.892 414.415 816.392 413.787C816.9 413.158 817.075 412.397 816.918 411.505Z" fill="black"/>
<path d="M716.584 664.476L722.369 667.815L721.244 669.764L706.467 661.233L709.614 655.783C710.547 654.166 711.691 653.139 713.043 652.702C714.4 652.258 715.758 652.429 717.118 653.214C718.553 654.043 719.399 655.131 719.658 656.48C719.913 657.819 719.559 659.323 718.594 660.995L716.584 664.476ZM714.991 663.556L717.012 660.054C717.614 659.012 717.831 658.073 717.664 657.237C717.491 656.397 716.94 655.71 716.014 655.175C715.134 654.667 714.27 654.538 713.422 654.788C712.574 655.038 711.861 655.641 711.282 656.597L709.196 660.21L714.991 663.556ZM731.396 652.649C730.537 654.137 729.35 655.067 727.837 655.438C726.317 655.805 724.738 655.516 723.101 654.571L722.756 654.372C721.666 653.743 720.815 652.976 720.2 652.071C719.583 651.156 719.25 650.187 719.199 649.165C719.145 648.133 719.37 647.181 719.874 646.308C720.699 644.88 721.809 644.042 723.207 643.793C724.604 643.545 726.179 643.926 727.932 644.938L728.713 645.389L724.418 652.828C725.516 653.426 726.574 653.618 727.592 653.402C728.606 653.176 729.383 652.596 729.922 651.662C730.305 650.999 730.494 650.36 730.489 649.743C730.484 649.127 730.358 648.517 730.11 647.915L731.666 647.283C732.548 649.02 732.459 650.808 731.396 652.649ZM721.417 647.198C720.98 647.956 720.89 648.752 721.148 649.587C721.399 650.417 721.987 651.181 722.911 651.877L726.087 646.376L725.944 646.294C724.959 645.798 724.073 645.629 723.287 645.788C722.493 645.944 721.87 646.414 721.417 647.198ZM728.694 635.392C728.482 635.649 728.281 635.943 728.089 636.274C727.379 637.506 727.42 638.644 728.215 639.689L736.009 644.189L734.925 646.067L723.945 639.727L724.999 637.9L726.285 638.602C725.66 637.42 725.673 636.264 726.326 635.134C726.537 634.769 726.744 634.519 726.948 634.384L728.694 635.392ZM739.619 637.938L730.089 632.436L729.087 634.171L727.636 633.333L728.638 631.598L727.511 630.947C726.334 630.268 725.606 629.428 725.326 628.427C725.047 627.427 725.239 626.352 725.903 625.202C726.153 624.769 726.459 624.372 726.82 624.012L728.284 624.993C728.039 625.276 727.813 625.596 727.606 625.955C727.255 626.564 727.163 627.137 727.33 627.676C727.49 628.211 727.902 628.669 728.565 629.052L729.722 629.72L731.075 627.376L732.527 628.214L731.173 630.558L740.703 636.06L739.619 637.938ZM737.378 628.904C736.303 628.283 735.456 627.515 734.839 626.599C734.226 625.677 733.903 624.705 733.87 623.685C733.84 622.657 734.105 621.66 734.663 620.692C735.527 619.197 736.742 618.288 738.308 617.966C739.878 617.637 741.523 617.968 743.241 618.96L743.373 619.036C744.442 619.654 745.284 620.415 745.898 621.32C746.509 622.214 746.831 623.18 746.863 624.218C746.899 625.249 746.632 626.259 746.062 627.246C745.203 628.735 743.988 629.644 742.418 629.973C740.851 630.295 739.215 629.965 737.51 628.98L737.378 628.904ZM738.692 627.145C739.909 627.848 741.049 628.132 742.111 627.996C743.176 627.854 743.983 627.309 744.53 626.362C745.08 625.408 745.146 624.435 744.726 623.444C744.299 622.449 743.412 621.562 742.066 620.785C740.862 620.09 739.721 619.815 738.645 619.96C737.566 620.095 736.753 620.636 736.206 621.583C735.671 622.51 735.608 623.47 736.017 624.465C736.427 625.459 737.318 626.352 738.692 627.145ZM743.869 609.106C743.658 609.363 743.457 609.657 743.265 609.989C742.554 611.22 742.596 612.359 743.391 613.404L751.185 617.904L750.101 619.781L739.12 613.442L740.175 611.615L741.461 612.317C740.836 611.135 740.849 609.979 741.501 608.849C741.712 608.483 741.92 608.233 742.124 608.099L743.869 609.106ZM744.206 604.633L745.453 605.285C744.971 603.933 745.124 602.574 745.913 601.207C746.8 599.671 747.992 598.966 749.49 599.09C749.173 598.42 749.02 597.701 749.031 596.931C749.047 596.155 749.285 595.368 749.745 594.57C751.136 592.161 753.119 591.673 755.693 593.105L763.05 597.353L761.967 599.23L754.72 595.047C753.935 594.594 753.247 594.435 752.654 594.571C752.055 594.703 751.511 595.192 751.022 596.038C750.62 596.734 750.496 597.434 750.65 598.136C750.797 598.835 751.201 599.424 751.861 599.905L759.148 604.112L758.058 605.999L750.863 601.845C749.266 600.923 748.017 601.244 747.114 602.807C746.403 604.038 746.441 605.183 747.228 606.242L755.246 610.871L754.162 612.748L743.181 606.409L744.206 604.633ZM768.605 587.732C768.326 587.715 767.89 587.58 767.296 587.328C767.699 588.724 767.55 590.028 766.851 591.239C766.226 592.321 765.408 593.035 764.397 593.38C763.383 593.715 762.405 593.611 761.465 593.068C760.321 592.408 759.685 591.463 759.556 590.234C759.424 588.994 759.813 587.586 760.723 586.009L761.778 584.182L760.915 583.684C760.259 583.305 759.625 583.201 759.012 583.371C758.393 583.536 757.863 584.002 757.422 584.766C757.035 585.436 756.88 586.095 756.956 586.744C757.033 587.392 757.312 587.855 757.792 588.133L756.702 590.02C756.154 589.704 755.738 589.207 755.453 588.528C755.165 587.839 755.064 587.076 755.149 586.242C755.238 585.4 755.513 584.58 755.974 583.781C756.704 582.516 757.595 581.709 758.645 581.359C759.688 581.005 760.772 581.135 761.898 581.748L766.952 584.666C767.96 585.248 768.836 585.583 769.58 585.669L769.742 585.763L768.605 587.732ZM765.375 590.021C765.715 589.433 765.885 588.787 765.885 588.083C765.886 587.38 765.711 586.769 765.36 586.251L763.107 584.95L762.258 586.421C760.929 588.722 760.939 590.261 762.285 591.038C762.874 591.378 763.447 591.447 764.005 591.246C764.563 591.045 765.02 590.637 765.375 590.021ZM761.263 575.09L762.678 575.826C762.107 574.377 762.212 572.976 762.994 571.623C764.333 569.303 766.318 568.888 768.948 570.379L776.205 574.569L775.121 576.446L767.854 572.251C767.059 571.801 766.368 571.646 765.782 571.785C765.2 571.918 764.692 572.361 764.259 573.112C763.907 573.72 763.761 574.349 763.82 574.996C763.879 575.644 764.098 576.249 764.478 576.81L772.302 581.328L771.218 583.205L760.238 576.866L761.263 575.09ZM779.053 566.565C779.44 565.895 779.575 565.193 779.458 564.458C779.341 563.723 778.994 563.153 778.416 562.747L779.441 560.971C780.051 561.368 780.525 561.93 780.863 562.657C781.201 563.385 781.345 564.181 781.297 565.046C781.252 565.904 781.015 566.706 780.586 567.45C779.722 568.945 778.537 569.849 777.031 570.161C775.522 570.462 773.901 570.113 772.169 569.113L771.855 568.932C770.786 568.314 769.948 567.569 769.343 566.696C768.737 565.824 768.415 564.889 768.377 563.893C768.343 562.889 768.615 561.887 769.193 560.886C769.904 559.655 770.862 558.846 772.069 558.46C773.279 558.067 774.488 558.183 775.696 558.809L774.671 560.585C773.929 560.229 773.191 560.163 772.457 560.389C771.719 560.604 771.146 561.066 770.735 561.777C770.185 562.731 770.102 563.671 770.487 564.597C770.87 565.512 771.711 566.345 773.01 567.095L773.365 567.3C774.63 568.031 775.755 568.333 776.739 568.206C777.723 568.08 778.494 567.533 779.053 566.565ZM786.955 556.418C786.095 557.907 784.909 558.837 783.396 559.208C781.875 559.575 780.297 559.286 778.659 558.341L778.314 558.142C777.225 557.513 776.373 556.746 775.759 555.841C775.142 554.925 774.808 553.957 774.757 552.935C774.704 551.903 774.929 550.95 775.433 550.078C776.257 548.65 777.368 547.812 778.766 547.563C780.163 547.315 781.738 547.696 783.49 548.708L784.272 549.159L779.977 556.598C781.075 557.196 782.133 557.387 783.15 557.172C784.165 556.946 784.942 556.366 785.481 555.432C785.864 554.769 786.052 554.129 786.047 553.513C786.042 552.897 785.916 552.287 785.669 551.684L787.224 551.053C788.107 552.79 788.017 554.578 786.955 556.418ZM776.976 550.968C776.538 551.726 776.448 552.522 776.706 553.357C776.957 554.187 777.545 554.95 778.469 555.646L781.645 550.146L781.503 550.064C780.518 549.567 779.632 549.399 778.845 549.558C778.052 549.713 777.429 550.183 776.976 550.968Z" fill="black"/>
<path d="M492.123 795.47L494.408 801.747L492.294 802.517L486.458 786.483L492.371 784.331C494.126 783.692 495.662 783.641 496.979 784.175C498.303 784.708 499.234 785.712 499.771 787.187C500.338 788.744 500.286 790.122 499.617 791.321C498.953 792.511 497.714 793.436 495.901 794.096L492.123 795.47ZM491.494 793.742L495.293 792.359C496.424 791.947 497.194 791.368 497.604 790.62C498.01 789.865 498.031 788.985 497.665 787.979C497.317 787.024 496.739 786.371 495.928 786.017C495.118 785.663 494.184 785.667 493.126 786.027L489.206 787.454L491.494 793.742ZM508.29 785.271C507.963 785.332 507.619 785.428 507.26 785.559C505.924 786.045 505.224 786.944 505.161 788.256L508.239 796.713L506.202 797.455L501.865 785.54L503.847 784.818L504.381 786.183C504.662 784.875 505.415 783.998 506.641 783.552C507.038 783.408 507.357 783.349 507.6 783.377L508.29 785.271ZM510.876 788.882C510.451 787.715 510.297 786.582 510.412 785.484C510.536 784.383 510.912 783.431 511.543 782.628C512.181 781.823 513.025 781.229 514.074 780.846C515.697 780.256 517.212 780.341 518.619 781.1C520.034 781.858 521.08 783.169 521.759 785.033L521.811 785.176C522.233 786.336 522.389 787.46 522.278 788.548C522.171 789.626 521.797 790.573 521.154 791.389C520.519 792.202 519.665 792.804 518.593 793.194C516.978 793.782 515.464 793.697 514.049 792.94C512.642 792.18 511.601 790.875 510.928 789.025L510.876 788.882ZM513.012 788.379C513.493 789.7 514.184 790.65 515.085 791.229C515.993 791.804 516.96 791.905 517.988 791.531C519.023 791.154 519.699 790.451 520.014 789.422C520.327 788.385 520.217 787.137 519.686 785.676C519.21 784.369 518.513 783.425 517.595 782.845C516.682 782.254 515.711 782.146 514.684 782.52C513.678 782.886 513.012 783.582 512.687 784.606C512.361 785.631 512.47 786.889 513.012 788.379ZM527.488 789.707L523.725 779.367L521.842 780.052L521.268 778.478L523.151 777.792L522.707 776.57C522.242 775.292 522.224 774.181 522.652 773.235C523.081 772.289 523.92 771.589 525.168 771.135C525.638 770.964 526.127 770.856 526.635 770.813L527.126 772.505C526.757 772.564 526.377 772.665 525.988 772.806C525.328 773.047 524.888 773.427 524.67 773.947C524.449 774.46 524.47 775.076 524.732 775.795L525.189 777.051L527.732 776.125L528.306 777.7L525.762 778.625L529.525 788.966L527.488 789.707ZM541.254 783.362C540.8 784.583 539.806 785.473 538.272 786.032C537.002 786.494 535.899 786.479 534.964 785.988C534.033 785.487 533.301 784.515 532.767 783.072L529.946 775.319L531.983 774.578L534.785 782.275C535.442 784.081 536.505 784.717 537.973 784.182C539.529 783.616 540.353 782.659 540.445 781.312L537.291 772.646L539.328 771.904L543.665 783.819L541.727 784.525L541.254 783.362ZM544.361 770.073L544.972 771.546C545.465 770.07 546.446 769.064 547.914 768.53C550.432 767.613 552.22 768.572 553.276 771.405L556.141 779.278L554.104 780.02L551.234 772.135C550.914 771.279 550.485 770.716 549.946 770.446C549.415 770.174 548.742 770.186 547.927 770.483C547.266 770.724 546.75 771.111 546.379 771.645C546.008 772.179 545.788 772.783 545.717 773.457L548.807 781.948L546.77 782.689L542.433 770.774L544.361 770.073ZM556.514 772.284C555.848 770.456 555.747 768.83 556.21 767.406C556.67 765.975 557.601 765.004 559.003 764.494C560.398 763.986 561.677 764.061 562.839 764.719L560.579 758.508L562.616 757.766L568.772 774.681L566.9 775.362L566.336 774.121C565.885 775.416 564.932 776.328 563.478 776.857C562.098 777.359 560.766 777.204 559.481 776.392C558.203 775.576 557.233 774.259 556.57 772.438L556.514 772.284ZM558.635 771.773C559.127 773.124 559.791 774.08 560.626 774.64C561.462 775.201 562.372 775.302 563.356 774.944C564.648 774.474 565.38 773.55 565.553 772.174L563.561 766.701C562.542 765.799 561.402 765.579 560.139 766.038C559.141 766.402 558.503 767.07 558.226 768.044C557.948 769.018 558.085 770.261 558.635 771.773ZM574.157 772.721L572.12 773.463L567.783 761.548L569.82 760.806L574.157 772.721ZM566.468 758.447C566.347 758.117 566.345 757.802 566.46 757.502C566.583 757.2 566.843 756.976 567.239 756.832C567.636 756.688 567.978 756.692 568.266 756.845C568.555 756.997 568.759 757.239 568.879 757.569C569 757.9 568.997 758.212 568.872 758.508C568.746 758.803 568.485 759.022 568.089 759.167C567.692 759.311 567.351 759.31 567.066 759.165C566.787 759.017 566.588 758.778 566.468 758.447ZM574.728 765.654C574.062 763.826 573.961 762.2 574.424 760.777C574.884 759.345 575.815 758.375 577.217 757.864C578.612 757.357 579.891 757.432 581.053 758.089L578.792 751.879L580.83 751.137L586.986 768.052L585.114 768.733L584.55 767.492C584.099 768.787 583.146 769.699 581.692 770.228C580.312 770.73 578.98 770.575 577.694 769.762C576.417 768.947 575.446 767.629 574.784 765.809L574.728 765.654ZM576.849 765.144C577.341 766.495 578.004 767.451 578.84 768.011C579.676 768.571 580.586 768.673 581.57 768.315C582.862 767.844 583.594 766.921 583.766 765.545L581.774 760.072C580.756 759.17 579.616 758.949 578.353 759.409C577.355 759.772 576.717 760.441 576.439 761.415C576.162 762.389 576.299 763.632 576.849 765.144ZM597.514 764.22C597.311 764.028 597.063 763.644 596.77 763.069C596.181 764.397 595.23 765.301 593.916 765.779C592.741 766.206 591.655 766.227 590.659 765.842C589.667 765.446 588.985 764.738 588.614 763.718C588.162 762.477 588.282 761.345 588.973 760.32C589.669 759.285 590.872 758.456 592.583 757.834L594.565 757.112L594.224 756.176C593.965 755.464 593.546 754.976 592.968 754.713C592.388 754.442 591.682 754.458 590.853 754.76C590.126 755.024 589.583 755.429 589.225 755.976C588.867 756.522 588.783 757.055 588.972 757.577L586.924 758.322C586.708 757.727 586.709 757.079 586.927 756.376C587.149 755.663 587.562 755.014 588.163 754.429C588.773 753.841 589.51 753.39 590.377 753.075C591.75 752.575 592.951 752.529 593.98 752.935C595.007 753.335 595.754 754.131 596.221 755.325L598.217 760.809C598.616 761.903 599.072 762.722 599.586 763.266L599.65 763.442L597.514 764.22ZM593.568 763.898C594.206 763.665 594.752 763.28 595.204 762.741C595.657 762.202 595.915 761.622 595.98 761L595.09 758.555L593.493 759.136C590.997 760.045 590.015 761.229 590.547 762.69C590.779 763.329 591.174 763.751 591.731 763.955C592.287 764.16 592.9 764.141 593.568 763.898ZM599.725 756.556C599.06 754.728 598.958 753.102 599.421 751.678C599.881 750.247 600.812 749.276 602.215 748.766C603.61 748.258 604.888 748.333 606.05 748.991L603.79 742.78L605.827 742.039L611.983 758.953L610.111 759.635L609.547 758.393C609.096 759.688 608.143 760.6 606.69 761.13C605.309 761.632 603.977 761.477 602.692 760.664C601.414 759.849 600.444 758.531 599.781 756.71L599.725 756.556ZM601.846 756.046C602.338 757.397 603.002 758.352 603.838 758.913C604.673 759.473 605.583 759.574 606.567 759.216C607.859 758.746 608.591 757.823 608.764 756.446L606.772 750.973C605.754 750.072 604.613 749.851 603.35 750.311C602.352 750.674 601.714 751.343 601.437 752.317C601.159 753.29 601.296 754.534 601.846 756.046ZM620.179 756.22C618.564 756.808 617.058 756.757 615.66 756.069C614.259 755.373 613.236 754.137 612.589 752.36L612.453 751.986C612.023 750.804 611.863 749.669 611.974 748.581C612.09 747.483 612.457 746.526 613.075 745.711C613.697 744.886 614.482 744.301 615.429 743.956C616.978 743.393 618.368 743.465 619.598 744.172C620.828 744.88 621.79 746.185 622.482 748.086L622.79 748.934L614.719 751.872C615.175 753.036 615.863 753.862 616.781 754.351C617.703 754.83 618.671 754.886 619.684 754.517C620.404 754.255 620.96 753.886 621.352 753.411C621.744 752.936 622.039 752.388 622.238 751.767L623.835 752.283C623.395 754.181 622.176 755.493 620.179 756.22ZM616.038 745.63C615.216 745.929 614.636 746.482 614.297 747.287C613.955 748.084 613.915 749.047 614.175 750.174L620.144 748.002L620.088 747.848C619.652 746.834 619.082 746.135 618.377 745.752C617.67 745.361 616.89 745.32 616.038 745.63Z" fill="black"/>
<path d="M204.313 750.552L202.028 756.829L199.914 756.06L205.75 740.026L211.663 742.178C213.418 742.817 214.628 743.765 215.293 745.021C215.965 746.28 216.033 747.647 215.496 749.123C214.929 750.679 214.004 751.702 212.72 752.191C211.447 752.675 209.903 752.587 208.09 751.927L204.313 750.552ZM204.942 748.823L208.741 750.206C209.872 750.618 210.834 750.669 211.629 750.359C212.426 750.042 213.007 749.381 213.373 748.375C213.721 747.421 213.698 746.548 213.304 745.756C212.91 744.965 212.193 744.367 211.151 743.962L207.231 742.536L204.942 748.823ZM223.253 753.131C222.963 752.967 222.638 752.82 222.279 752.689C220.943 752.203 219.829 752.442 218.938 753.406L215.859 761.863L213.822 761.122L218.159 749.207L220.141 749.928L219.673 751.317C220.729 750.495 221.869 750.308 223.095 750.754C223.492 750.898 223.774 751.059 223.942 751.237L223.253 753.131ZM223.678 764.709L221.641 763.968L225.977 752.053L228.015 752.794L223.678 764.709ZM226.963 748.832C227.083 748.502 227.283 748.259 227.564 748.103C227.853 747.95 228.195 747.946 228.592 748.091C228.988 748.235 229.248 748.458 229.37 748.761C229.493 749.063 229.494 749.379 229.374 749.71C229.254 750.04 229.051 750.278 228.765 750.423C228.479 750.569 228.138 750.569 227.742 750.425C227.346 750.281 227.085 750.061 226.959 749.766C226.841 749.474 226.842 749.162 226.963 748.832ZM231.886 764.566L238.168 756.489L240.249 757.247L231.64 767.607L230.087 767.042L230.107 753.556L232.188 754.313L231.886 764.566ZM245.052 772.489C245.02 772.211 245.077 771.758 245.223 771.129C243.918 771.768 242.608 771.848 241.294 771.37C240.119 770.943 239.274 770.261 238.759 769.325C238.253 768.384 238.186 767.404 238.557 766.383C239.009 765.143 239.829 764.352 241.017 764.011C242.215 763.666 243.669 763.805 245.38 764.427L247.362 765.149L247.703 764.213C247.962 763.5 247.955 762.858 247.681 762.284C247.411 761.703 246.86 761.262 246.031 760.96C245.304 760.696 244.628 760.657 244.002 760.845C243.377 761.033 242.969 761.388 242.78 761.909L240.731 761.164C240.948 760.569 241.365 760.073 241.984 759.674C242.613 759.271 243.346 759.039 244.183 758.978C245.028 758.92 245.883 759.048 246.749 759.363C248.122 759.863 249.072 760.6 249.599 761.573C250.129 762.539 250.189 763.629 249.78 764.844L247.784 770.328C247.386 771.422 247.209 772.342 247.253 773.09L247.189 773.266L245.052 772.489ZM242.237 769.705C242.875 769.938 243.541 769.993 244.234 769.871C244.927 769.749 245.498 769.471 245.947 769.036L246.837 766.591L245.24 766.01C242.744 765.101 241.23 765.378 240.699 766.839C240.466 767.477 240.497 768.054 240.792 768.569C241.087 769.083 241.569 769.462 242.237 769.705ZM255.268 774.573C255.995 774.838 256.71 774.849 257.413 774.606C258.117 774.363 258.618 773.922 258.918 773.283L260.845 773.984C260.56 774.653 260.088 775.218 259.431 775.677C258.773 776.136 258.014 776.417 257.154 776.519C256.301 776.624 255.47 776.53 254.663 776.236C253.04 775.645 251.945 774.636 251.376 773.206C250.817 771.772 250.879 770.116 251.563 768.236L251.688 767.895C252.11 766.735 252.698 765.781 253.453 765.033C254.207 764.285 255.071 763.806 256.046 763.595C257.028 763.387 258.062 763.481 259.149 763.876C260.485 764.363 261.448 765.166 262.037 766.287C262.634 767.411 262.73 768.622 262.324 769.921L260.397 769.219C260.618 768.427 260.555 767.689 260.205 767.005C259.865 766.316 259.31 765.831 258.539 765.55C257.504 765.174 256.564 765.255 255.719 765.796C254.884 766.331 254.21 767.304 253.697 768.714L253.556 769.099C253.057 770.472 252.955 771.632 253.25 772.579C253.545 773.526 254.218 774.191 255.268 774.573ZM263.982 779.378L261.945 778.637L266.281 766.722L268.319 767.463L263.982 779.378ZM267.267 763.501C267.387 763.171 267.587 762.928 267.868 762.773C268.157 762.62 268.499 762.616 268.896 762.76C269.292 762.904 269.552 763.128 269.674 763.43C269.797 763.732 269.798 764.049 269.678 764.379C269.558 764.71 269.355 764.947 269.069 765.093C268.783 765.238 268.442 765.239 268.046 765.095C267.65 764.95 267.389 764.731 267.263 764.436C267.145 764.143 267.146 763.832 267.267 763.501ZM268.961 774.332C269.627 772.504 270.594 771.193 271.864 770.4C273.136 769.599 274.474 769.454 275.876 769.965C277.271 770.472 278.202 771.352 278.67 772.603L280.93 766.392L282.967 767.133L276.811 784.048L274.939 783.366L275.305 782.053C274.126 782.755 272.81 782.841 271.357 782.312C269.977 781.81 269.056 780.834 268.593 779.386C268.139 777.94 268.243 776.307 268.905 774.486L268.961 774.332ZM270.914 775.305C270.423 776.655 270.317 777.814 270.597 778.781C270.877 779.747 271.509 780.41 272.493 780.768C273.785 781.238 274.939 781.001 275.956 780.058L277.948 774.585C277.748 773.24 277.016 772.338 275.753 771.878C274.755 771.515 273.836 771.617 272.998 772.185C272.159 772.752 271.465 773.792 270.914 775.305ZM287.338 787.88C287.306 787.602 287.363 787.149 287.509 786.52C286.204 787.159 284.894 787.239 283.58 786.761C282.406 786.334 281.56 785.652 281.045 784.716C280.539 783.775 280.472 782.795 280.843 781.774C281.295 780.534 282.115 779.743 283.303 779.402C284.501 779.057 285.956 779.195 287.666 779.818L289.648 780.539L289.989 779.603C290.248 778.891 290.241 778.249 289.968 777.675C289.697 777.094 289.147 776.653 288.317 776.351C287.59 776.086 286.914 776.048 286.289 776.236C285.663 776.424 285.256 776.779 285.066 777.3L283.018 776.555C283.234 775.96 283.652 775.464 284.271 775.065C284.899 774.662 285.632 774.43 286.469 774.369C287.314 774.311 288.169 774.439 289.035 774.754C290.408 775.254 291.358 775.99 291.885 776.964C292.415 777.93 292.475 779.02 292.066 780.235L290.07 785.719C289.672 786.813 289.495 787.733 289.539 788.481L289.475 788.657L287.338 787.88ZM284.523 785.096C285.162 785.329 285.827 785.384 286.52 785.262C287.213 785.14 287.784 784.862 288.233 784.427L289.123 781.982L287.527 781.401C285.03 780.492 283.517 780.769 282.985 782.23C282.752 782.868 282.784 783.445 283.078 783.96C283.373 784.474 283.855 784.853 284.523 785.096ZM293.959 783.43C294.624 781.602 295.592 780.292 296.861 779.498C298.134 778.698 299.471 778.553 300.873 779.063C302.268 779.571 303.199 780.45 303.667 781.701L305.927 775.49L307.965 776.232L301.808 793.146L299.936 792.465L300.302 791.151C299.124 791.853 297.808 791.94 296.354 791.41C294.974 790.908 294.053 789.933 293.591 788.484C293.136 787.038 293.24 785.405 293.903 783.584L293.959 783.43ZM295.912 784.403C295.42 785.754 295.314 786.912 295.594 787.879C295.874 788.846 296.506 789.508 297.49 789.866C298.782 790.336 299.937 790.1 300.953 789.156L302.945 783.683C302.745 782.338 302.013 781.436 300.751 780.976C299.752 780.613 298.834 780.715 297.995 781.283C297.157 781.851 296.462 782.891 295.912 784.403ZM309.844 796.32C308.229 795.732 307.107 794.726 306.479 793.3C305.853 791.866 305.864 790.262 306.51 788.485L306.646 788.111C307.077 786.929 307.684 785.957 308.469 785.195C309.263 784.428 310.159 783.931 311.156 783.704C312.163 783.472 313.141 783.528 314.088 783.873C315.637 784.436 316.655 785.385 317.142 786.718C317.63 788.051 317.528 789.668 316.836 791.57L316.527 792.418L308.455 789.48C308.057 790.665 308.052 791.74 308.441 792.705C308.84 793.664 309.546 794.329 310.559 794.698C311.279 794.959 311.941 795.034 312.548 794.922C313.154 794.81 313.732 794.58 314.283 794.232L315.174 795.654C313.618 796.825 311.841 797.047 309.844 796.32ZM313.478 785.546C312.656 785.247 311.857 785.297 311.08 785.696C310.305 786.088 309.655 786.799 309.131 787.83L315.099 790.002L315.155 789.848C315.473 788.792 315.485 787.89 315.192 787.143C314.901 786.389 314.33 785.856 313.478 785.546Z" fill="black"/>
<path d="M31.0658 525.612L25.281 528.952L24.156 527.004L38.9326 518.472L42.0791 523.922C43.0127 525.539 43.3304 527.043 43.0323 528.433C42.7382 529.829 41.9111 530.92 40.5512 531.705C39.1168 532.534 37.7508 532.722 36.4532 532.272C35.1663 531.824 34.0404 530.764 33.0756 529.093L31.0658 525.612ZM32.6592 524.692L34.6806 528.194C35.2822 529.236 35.9867 529.893 36.7942 530.167C37.6084 530.437 38.479 530.304 39.4059 529.769C40.2854 529.261 40.8289 528.577 41.0363 527.718C41.2438 526.858 41.0783 525.939 40.54 524.96L38.4541 521.347L32.6592 524.692ZM32.7342 541.861L31.6502 539.984L47.2386 530.984L48.3226 532.861L32.7342 541.861ZM38.3885 551.655C38.5425 551.422 38.8773 551.111 39.3931 550.723C37.9825 550.374 36.9277 549.593 36.2284 548.382C35.6034 547.3 35.3942 546.234 35.6008 545.186C35.8181 544.14 36.3969 543.346 37.3374 542.803C38.4808 542.143 39.6171 542.064 40.7463 542.567C41.8862 543.073 42.9113 544.114 43.8214 545.69L44.8761 547.517L45.7387 547.019C46.395 546.64 46.8027 546.143 46.9618 545.528C47.1277 544.909 46.9899 544.217 46.5485 543.452C46.1618 542.783 45.6684 542.319 45.0684 542.061C44.4684 541.803 43.9282 541.812 43.4478 542.09L42.358 540.202C42.906 539.886 43.5451 539.774 44.2752 539.867C45.0159 539.962 45.7266 540.255 46.4071 540.747C47.0915 541.245 47.6642 541.893 48.1251 542.691C48.8556 543.956 49.1098 545.131 48.8879 546.215C48.6727 547.296 48.0182 548.17 46.9242 548.838L41.8701 551.756C40.862 552.338 40.1345 552.929 39.6875 553.53L39.5252 553.624L38.3885 551.655ZM38.0206 547.713C38.3604 548.302 38.8349 548.772 39.4441 549.124C40.0532 549.476 40.6697 549.63 41.2936 549.585L43.5466 548.284L42.697 546.813C41.3689 544.512 40.0316 543.751 38.6852 544.528C38.0966 544.868 37.7498 545.33 37.6448 545.914C37.5399 546.498 37.6651 547.097 38.0206 547.713ZM53.0081 551.617L51.663 552.475C53.2028 552.705 54.3634 553.496 55.1446 554.849C56.4845 557.17 55.8511 559.096 53.2444 560.628L45.9881 564.818L44.9041 562.94L52.1706 558.745C52.9583 558.281 53.438 557.761 53.6099 557.183C53.7857 556.613 53.6567 555.952 53.2231 555.201C52.8716 554.592 52.4006 554.151 51.8102 553.879C51.2198 553.606 50.5866 553.494 49.9104 553.541L42.0857 558.059L41.0017 556.181L51.9827 549.841L53.0081 551.617ZM50.0507 572.323C49.1913 570.835 48.9793 569.342 49.4145 567.846C49.8565 566.346 50.8961 565.123 52.5334 564.178L52.8785 563.979C53.9678 563.35 55.0578 562.996 56.1486 562.916C57.2501 562.84 58.2558 563.035 59.1659 563.502C60.0866 563.971 60.7989 564.643 61.3028 565.516C62.127 566.943 62.2974 568.324 61.814 569.659C61.3306 570.993 60.2127 572.167 58.4604 573.178L57.6789 573.629L53.384 566.19C52.3171 566.842 51.6226 567.663 51.3004 568.652C50.9889 569.644 51.1027 570.606 51.6418 571.54C52.0246 572.203 52.4841 572.686 53.0204 572.99C53.5566 573.294 54.1476 573.49 54.7934 573.577L54.5624 575.239C52.6171 575.136 51.1132 574.163 50.0507 572.323ZM59.7602 566.406C59.3227 565.648 58.6781 565.173 57.8265 564.979C56.9816 564.781 56.0267 564.908 54.9618 565.361L58.1375 570.861L58.2796 570.779C59.2024 570.174 59.7914 569.491 60.0467 568.731C60.3089 567.966 60.2133 567.191 59.7602 566.406ZM66.0862 574.269L53.8367 581.342C51.7257 582.56 50.1175 582.212 49.012 580.298C48.7738 579.885 48.614 579.467 48.5326 579.045L50.0346 578.178C50.1055 578.426 50.2425 578.726 50.4456 579.078C50.6878 579.497 50.9864 579.749 51.3415 579.832C51.6936 579.927 52.1505 579.812 52.7121 579.488L65.0022 572.392L66.0862 574.269ZM67.8036 570.517C68.1012 570.345 68.4077 570.29 68.7229 570.352C69.0488 570.416 69.3152 570.628 69.5223 570.986C69.7332 571.352 69.7885 571.69 69.6881 572C69.5878 572.311 69.3854 572.554 69.0809 572.73C68.7764 572.906 68.468 572.957 68.1557 572.885C67.8433 572.813 67.5817 572.594 67.3707 572.229C67.1598 571.863 67.1031 571.531 67.2006 571.231C67.2981 570.931 67.4991 570.693 67.8036 570.517ZM60.7713 590.423C60.9253 590.19 61.2601 589.879 61.7759 589.491C60.3653 589.142 59.3105 588.362 58.6113 587.15C57.9863 586.068 57.777 585.002 57.9836 583.954C58.2009 582.908 58.7797 582.114 59.7202 581.571C60.8636 580.911 61.9999 580.832 63.1291 581.335C64.269 581.841 65.2941 582.882 66.2042 584.458L67.2589 586.285L68.1216 585.787C68.7778 585.408 69.1855 584.911 69.3446 584.296C69.5105 583.677 69.3727 582.985 68.9313 582.221C68.5446 581.551 68.0512 581.087 67.4512 580.829C66.8512 580.571 66.311 580.581 65.8306 580.858L64.7408 578.97C65.2888 578.654 65.9279 578.542 66.658 578.635C67.3987 578.73 68.1094 579.024 68.7899 579.515C69.4743 580.013 70.047 580.661 70.5079 581.459C71.2384 582.724 71.4926 583.899 71.2707 584.984C71.0556 586.064 70.401 586.938 69.307 587.606L64.253 590.524C63.2448 591.106 62.5173 591.697 62.0704 592.298L61.908 592.392L60.7713 590.423ZM60.4034 586.481C60.7433 587.07 61.2177 587.54 61.8269 587.892C62.436 588.244 63.0526 588.398 63.6764 588.353L65.9294 587.052L65.0798 585.581C63.7517 583.281 62.4144 582.519 61.068 583.296C60.4794 583.636 60.1326 584.098 60.0276 584.682C59.9227 585.266 60.0479 585.865 60.4034 586.481ZM75.385 590.375L74.1965 591.129C75.6085 591.387 76.7091 592.2 77.4981 593.567C78.3849 595.102 78.3997 596.488 77.5428 597.722C78.2815 597.783 78.9812 598.01 79.6419 598.405C80.3065 598.806 80.8692 599.406 81.3302 600.204C82.7208 602.613 82.1525 604.574 79.6252 606.087L72.2674 610.335L71.1834 608.457L78.4296 604.274C79.2144 603.821 79.6961 603.303 79.8748 602.722C80.0601 602.137 79.9087 601.422 79.4204 600.576C79.0181 599.879 78.4743 599.422 77.7892 599.204C77.1109 598.982 76.3984 599.037 75.6518 599.369L68.365 603.576L67.2752 601.688L74.4706 597.534C76.0674 596.612 76.4146 595.37 75.5122 593.807C74.8013 592.575 73.7906 592.036 72.4802 592.188L64.4627 596.817L63.3787 594.939L74.3596 588.599L75.385 590.375ZM76.3359 617.85C75.4765 616.362 75.2644 614.87 75.6996 613.373C76.1416 611.873 77.1813 610.651 78.8186 609.705L79.1637 609.506C80.2529 608.877 81.343 608.523 82.4338 608.444C83.5352 608.367 84.541 608.562 85.451 609.029C86.3718 609.499 87.0841 610.17 87.588 611.043C88.4122 612.47 88.5826 613.851 88.0992 615.186C87.6158 616.521 86.4979 617.694 84.7455 618.705L83.9641 619.157L79.6692 611.718C78.6023 612.37 77.9077 613.19 77.5856 614.179C77.2741 615.171 77.3879 616.133 77.9269 617.067C78.3097 617.73 78.7693 618.214 79.3055 618.517C79.8418 618.821 80.4328 619.017 81.0786 619.104L80.8476 620.766C78.9023 620.663 77.3984 619.691 76.3359 617.85ZM86.0454 611.933C85.6079 611.176 84.9633 610.7 84.1116 610.506C83.2667 610.308 82.3118 610.435 81.2469 610.888L84.4227 616.388L84.5648 616.306C85.4875 615.702 86.0766 615.019 86.3319 614.258C86.594 613.493 86.4985 612.718 86.0454 611.933ZM92.2776 619.634L90.9325 620.492C92.4724 620.722 93.6329 621.513 94.4142 622.866C95.754 625.187 95.1206 627.113 92.5139 628.645L85.2576 632.835L84.1736 630.957L91.4401 626.762C92.2278 626.298 92.7076 625.777 92.8794 625.2C93.0552 624.629 92.9263 623.969 92.4927 623.218C92.1411 622.609 91.6701 622.168 91.0798 621.895C90.4894 621.623 89.8561 621.51 89.1799 621.558L81.3552 626.075L80.2713 624.198L91.2522 617.858L92.2776 619.634ZM102.003 630.338L99.344 631.874L100.528 633.924L99.0763 634.761L97.8927 632.711L91.0829 636.643C90.6431 636.897 90.3644 637.18 90.2465 637.491C90.1355 637.799 90.2069 638.173 90.4609 638.612C90.5859 638.829 90.7983 639.103 91.0983 639.435L89.576 640.314C89.1555 639.898 88.8105 639.457 88.5409 638.99C88.0566 638.151 87.9451 637.372 88.2064 636.653C88.4677 635.934 89.0653 635.305 89.9989 634.766L96.8087 630.834L95.6544 628.835L97.1057 627.997L98.26 629.996L100.919 628.461L102.003 630.338ZM96.0058 638.537C97.0816 637.916 98.1702 637.567 99.2716 637.49C100.377 637.421 101.38 637.626 102.28 638.108C103.185 638.596 103.916 639.324 104.475 640.291C105.338 641.787 105.518 643.293 105.014 644.811C104.514 646.336 103.404 647.594 101.686 648.586L101.554 648.662C100.485 649.28 99.4051 649.628 98.3143 649.707C97.2342 649.79 96.2367 649.585 95.3217 649.094C94.4106 648.61 93.6699 647.874 93.0995 646.886C92.2402 645.397 92.0605 643.891 92.5605 642.366C93.0644 640.849 94.1689 639.597 95.8739 638.613L96.0058 638.537ZM96.8724 640.553C95.6545 641.257 94.839 642.102 94.4257 643.089C94.0164 644.083 94.0851 645.054 94.632 646.001C95.1828 646.955 95.9924 647.498 97.0609 647.63C98.1361 647.758 99.3469 647.433 100.693 646.656C101.898 645.961 102.706 645.111 103.118 644.106C103.541 643.104 103.479 642.129 102.932 641.182C102.397 640.255 101.597 639.72 100.531 639.578C99.4654 639.435 98.2458 639.761 96.8724 640.553Z" fill="black"/>
<path d="M20.5595 378.759L27.1377 379.919L26.747 382.134L9.94373 379.172L11.0365 372.974C11.3607 371.135 12.0837 369.779 13.2055 368.906C14.3287 368.025 15.6635 367.721 17.2099 367.994C18.841 368.282 20.0087 369.015 20.7131 370.194C21.4111 371.365 21.5926 372.9 21.2575 374.8L20.5595 378.759ZM18.7476 378.439L19.4497 374.458C19.6586 373.273 19.5417 372.316 19.099 371.588C18.6486 370.858 17.8964 370.4 16.8423 370.214C15.8421 370.038 14.9863 370.212 14.275 370.737C13.5636 371.262 13.0994 372.073 12.8823 373.169L12.1579 377.277L18.7476 378.439ZM19.8101 359.659C19.6993 359.972 19.6106 360.318 19.5442 360.695C19.2973 362.095 19.726 363.15 20.8303 363.861L29.6936 365.423L29.3171 367.559L16.8301 365.357L17.1964 363.279L18.6451 363.499C17.6529 362.602 17.2701 361.511 17.4967 360.227C17.5699 359.811 17.6794 359.505 17.8251 359.309L19.8101 359.659ZM32.0073 352.302C31.7394 352.381 31.2832 352.404 30.6388 352.37C31.4947 353.544 31.8013 354.82 31.5585 356.197C31.3414 357.428 30.8168 358.379 29.9846 359.049C29.1461 359.71 28.1921 359.947 27.1227 359.758C25.8224 359.529 24.9014 358.859 24.3595 357.748C23.8113 356.628 23.6952 355.171 24.0113 353.379L24.3776 351.301L23.3966 351.128C22.6503 350.997 22.0186 351.116 21.5014 351.484C20.9764 351.852 20.6373 352.47 20.484 353.34C20.3497 354.102 20.4295 354.774 20.7233 355.357C21.017 355.941 21.4371 356.281 21.9833 356.377L21.6048 358.523C20.9816 358.414 20.4202 358.088 19.9205 357.548C19.4144 356.999 19.0586 356.317 18.853 355.504C18.6488 354.682 18.6268 353.818 18.7868 352.91C19.0405 351.471 19.6009 350.408 20.4679 349.72C21.3272 349.03 22.3905 348.781 23.6577 348.973L29.405 349.986C30.5514 350.189 31.4889 350.203 32.2175 350.03L32.4021 350.063L32.0073 352.302ZM29.7554 355.558C29.8734 354.888 29.8122 354.223 29.5718 353.562C29.3314 352.901 28.958 352.387 28.4515 352.02L25.8894 351.568L25.5944 353.241C25.1331 355.857 25.668 357.3 27.1991 357.57C27.8685 357.688 28.431 357.557 28.8867 357.178C29.3423 356.798 29.6319 356.258 29.7554 355.558ZM31.5263 344.839L32.8145 337.534L34.5571 337.841L32.8091 347.755L31.2396 347.478L23.3026 338.974L22.1061 345.76L20.3404 345.449L22.009 335.986L23.5208 336.252L31.5263 344.839ZM36.0944 330.473C35.7959 332.165 34.9991 333.445 33.704 334.311C32.4012 335.176 30.8188 335.445 28.9569 335.116L28.5645 335.047C27.3258 334.829 26.2631 334.399 25.3765 333.759C24.4835 333.11 23.8384 332.314 23.4414 331.371C23.038 330.42 22.9239 329.447 23.0989 328.455C23.3851 326.832 24.1423 325.664 25.3705 324.952C26.5987 324.241 28.2091 324.061 30.2018 324.412L31.0904 324.569L29.5988 333.028C30.8352 333.214 31.8947 333.032 32.7771 332.482C33.6532 331.922 34.1848 331.112 34.3721 330.05C34.505 329.296 34.4637 328.63 34.2482 328.053C34.0327 327.475 33.7057 326.946 33.2671 326.464L34.5126 325.339C35.9361 326.669 36.4634 328.38 36.0944 330.473ZM24.8531 328.764C24.7011 329.626 24.889 330.405 25.4168 331.101C25.9369 331.795 26.7503 332.312 27.8568 332.65L28.9598 326.395L28.7982 326.366C27.7025 326.236 26.8123 326.381 26.1277 326.8C25.4353 327.217 25.0104 327.872 24.8531 328.764ZM27.6528 315.181C27.5419 315.494 27.4533 315.84 27.3868 316.217C27.1399 317.617 27.5686 318.672 28.673 319.383L37.5363 320.946L37.1598 323.081L24.6727 320.879L25.039 318.801L26.4877 319.021C25.4956 318.124 25.1128 317.034 25.3393 315.749C25.4126 315.333 25.5221 315.027 25.6678 314.831L27.6528 315.181Z" fill="black"/>
<path d="M146.043 115.819L150.336 120.936L148.613 122.382L137.645 109.311L142.466 105.266C143.896 104.066 145.322 103.492 146.742 103.544C148.169 103.591 149.387 104.216 150.396 105.419C151.461 106.688 151.884 108 151.666 109.357C151.448 110.702 150.6 111.994 149.122 113.235L146.043 115.819ZM144.86 114.409L147.957 111.81C148.879 111.037 149.404 110.229 149.534 109.386C149.658 108.538 149.376 107.703 148.688 106.883C148.035 106.105 147.267 105.689 146.385 105.634C145.502 105.579 144.626 105.901 143.755 106.602L140.559 109.283L144.86 114.409ZM155.235 108.396C154.436 107.445 153.904 106.433 153.637 105.362C153.376 104.285 153.405 103.262 153.723 102.292C154.046 101.316 154.636 100.469 155.492 99.7513C156.815 98.6415 158.267 98.2029 159.849 98.4356C161.438 98.6633 162.87 99.5372 164.145 101.057L164.243 101.174C165.036 102.12 165.567 103.123 165.835 104.183C166.103 105.232 166.075 106.25 165.751 107.237C165.432 108.218 164.835 109.075 163.962 109.809C162.645 110.913 161.193 111.352 159.604 111.124C158.022 110.891 156.598 110.021 155.333 108.513L155.235 108.396ZM157.07 107.193C157.974 108.27 158.948 108.926 159.992 109.162C161.042 109.392 161.986 109.156 162.824 108.453C163.668 107.745 164.062 106.853 164.007 105.778C163.946 104.697 163.416 103.561 162.417 102.37C161.523 101.305 160.545 100.656 159.484 100.425C158.424 100.182 157.475 100.413 156.637 101.116C155.817 101.804 155.43 102.685 155.474 103.759C155.519 104.833 156.051 105.978 157.07 107.193ZM165.764 99.5769C164.513 98.0867 163.862 96.5935 163.81 95.0972C163.753 93.595 164.296 92.3643 165.439 91.4051C166.576 90.451 167.803 90.0842 169.12 90.3048L164.872 85.2417L166.532 83.8482L178.103 97.637L176.576 98.9175L175.622 97.944C175.641 99.3153 175.057 100.498 173.872 101.492C172.747 102.437 171.442 102.747 169.956 102.423C168.477 102.093 167.114 101.187 165.869 99.7026L165.764 99.5769ZM167.582 98.3719C168.506 99.4731 169.457 100.144 170.434 100.385C171.411 100.626 172.301 100.409 173.103 99.7366C174.156 98.8527 174.528 97.7346 174.22 96.3823L170.476 91.9207C169.211 91.4218 168.064 91.6043 167.034 92.468C166.22 93.151 165.85 93.9975 165.922 95.0075C165.995 96.0176 166.548 97.139 167.582 98.3719ZM184.869 92.2649C183.553 93.3697 182.12 93.8377 180.571 93.6689C179.017 93.4942 177.632 92.6826 176.417 91.2343L176.161 90.9291C175.352 89.9656 174.814 88.9536 174.546 87.8932C174.28 86.8218 174.297 85.7974 174.599 84.8201C174.902 83.8318 175.439 83.0137 176.211 82.3659C177.474 81.3063 178.804 80.8987 180.203 81.143C181.601 81.3873 182.95 82.2845 184.251 83.8346L184.831 84.5258L178.251 90.0472C179.078 90.9847 180.007 91.5262 181.037 91.6718C182.067 91.8063 182.996 91.5271 183.822 90.8341C184.408 90.3419 184.804 89.8054 185.011 89.2246C185.217 88.6437 185.307 88.0277 185.28 87.3766L186.958 87.3154C187.193 89.2492 186.497 90.899 184.869 92.2649ZM177.356 83.7304C176.686 84.2929 176.329 85.0103 176.286 85.8827C176.238 86.7491 176.529 87.6674 177.16 88.6375L182.025 84.5548L181.92 84.4291C181.164 83.6255 180.389 83.164 179.596 83.0446C178.797 82.9193 178.05 83.1479 177.356 83.7304ZM188.232 75.1245C187.946 75.2935 187.656 75.5011 187.363 75.7471C186.273 76.6611 185.923 77.7451 186.313 78.9992L192.098 85.8936L190.437 87.2871L182.287 77.5739L183.903 76.218L184.871 77.3175C184.688 75.9928 185.096 74.9111 186.095 74.0724C186.418 73.8013 186.699 73.6373 186.937 73.5804L188.232 75.1245Z" fill="black"/>
<path d="M393.75 15.3203V22H391.5V4.9375H397.793C399.66 4.9375 401.121 5.41406 402.176 6.36719C403.238 7.32031 403.77 8.58203 403.77 10.1523C403.77 11.8086 403.25 13.0859 402.211 13.9844C401.18 14.875 399.699 15.3203 397.77 15.3203H393.75ZM393.75 13.4805H397.793C398.996 13.4805 399.918 13.1992 400.559 12.6367C401.199 12.0664 401.52 11.2461 401.52 10.1758C401.52 9.16016 401.199 8.34766 400.559 7.73828C399.918 7.12891 399.039 6.8125 397.922 6.78906H393.75V13.4805ZM413.988 22C413.863 21.75 413.762 21.3047 413.684 20.6641C412.676 21.7109 411.473 22.2344 410.074 22.2344C408.824 22.2344 407.797 21.8828 406.992 21.1797C406.195 20.4688 405.797 19.5703 405.797 18.4844C405.797 17.1641 406.297 16.1406 407.297 15.4141C408.305 14.6797 409.719 14.3125 411.539 14.3125H413.648V13.3164C413.648 12.5586 413.422 11.957 412.969 11.5117C412.516 11.0586 411.848 10.832 410.965 10.832C410.191 10.832 409.543 11.0273 409.02 11.418C408.496 11.8086 408.234 12.2812 408.234 12.8359H406.055C406.055 12.2031 406.277 11.5938 406.723 11.0078C407.176 10.4141 407.785 9.94531 408.551 9.60156C409.324 9.25781 410.172 9.08594 411.094 9.08594C412.555 9.08594 413.699 9.45312 414.527 10.1875C415.355 10.9141 415.785 11.918 415.816 13.1992V19.0352C415.816 20.1992 415.965 21.125 416.262 21.8125V22H413.988ZM410.391 20.3477C411.07 20.3477 411.715 20.1719 412.324 19.8203C412.934 19.4688 413.375 19.0117 413.648 18.4492V15.8477H411.949C409.293 15.8477 407.965 16.625 407.965 18.1797C407.965 18.8594 408.191 19.3906 408.645 19.7734C409.098 20.1562 409.68 20.3477 410.391 20.3477ZM421.254 20.2305H428.672V22H418.605V20.4062L425.602 11.1133H418.711V9.32031H428.32V10.8555L421.254 20.2305Z" fill="black"/>
</svg>
